<svg xmlns="http://www.w3.org/2000/svg" xmlns:xlink="http://www.w3.org/1999/xlink" id="Capa_2" data-name="Capa 2" viewBox="0 0 1920 1080"><defs><style>      .cls-1 {        fill: #00a8ab;      }      .cls-2 {        fill: #3ea9e1;      }      .cls-3 {        fill: #007261;      }      .cls-4 {        fill: #f38f00;      }      .cls-5 {        fill: #cd331a;      }      .cls-6 {        fill: #255866;      }      .cls-7 {        fill: #fdea00;      }      .cls-8 {        clip-path: url(#clippath);      }      .cls-9 {        fill: none;      }      .cls-10 {        fill: #ffcd00;      }      .cls-11 {        fill: #ed6c0d;      }      .cls-12 {        fill: #fab400;      }      .cls-13 {        fill: #e63816;      }    </style><clipPath id="clippath"><rect class="cls-9" width="1920" height="1080"></rect></clipPath></defs><g id="Capa_1-2" data-name="Capa 1"><g class="cls-8"><path class="cls-5" d="m-.91-136.6h1965.05v876.67S-.91,749.36-.91,740.07V-136.6Z"></path><path class="cls-13" d="m2595.36,476.67c0,578.74-472.52,1047.9-1055.4,1047.9S484.57,1055.41,484.57,476.67,957.09-571.23,1539.96-571.23,2595.36-102.07,2595.36,476.67"></path><path class="cls-11" d="m2435.9,476.67c0,491.3-401.12,889.57-895.93,889.57s-895.93-398.28-895.93-889.57,401.12-889.57,895.93-889.57S2435.9-14.62,2435.9,476.67"></path><path class="cls-4" d="m2257.59,476.67c0,393.52-321.29,712.53-717.62,712.53s-717.62-319.01-717.62-712.53S1143.63-235.86,1539.96-235.86s717.62,319.01,717.62,712.53"></path><path class="cls-12" d="m2076.58,476.67c0,294.26-240.25,532.8-536.61,532.8s-536.61-238.54-536.61-532.8S1243.6-56.13,1539.96-56.13s536.61,238.54,536.61,532.8"></path><path class="cls-10" d="m1895.25,476.67c0,194.83-159.07,352.76-355.28,352.76s-355.28-157.94-355.28-352.76,159.07-352.76,355.28-352.76,355.28,157.94,355.28,352.76"></path><path class="cls-7" d="m1714.1,476.67c0,95.49-77.96,172.9-174.13,172.9s-174.13-77.41-174.13-172.9,77.96-172.89,174.13-172.89,174.13,77.41,174.13,172.89"></path><path class="cls-2" d="m-3.84,389.01c6.14,19.77-.5,485.44-.5,535.75h1965.05v-301.97c-141.73-1.82-295.84-23.47-418.53-93.95-38.15-21.92-72.55-49.71-109.93-72.9-59.57-36.96-117.12-77.55-180.18-108.64-68.4-33.73-132.35-44.34-208.32-44.5-155.77-.32-309.71,33.47-457.58,79.93-78.64,24.71-157.49,53.34-239.9,56.85-118.25,5.04-232.51-41.97-350.51-51.22.14.01.28.23.41.65"></path><path class="cls-1" d="m-4.56,986.09v-434.77c197.59,0,387.64-34.78,571.69-106.16,84.28-32.69,165.73-72.51,251.12-102.21,87.4-30.39,178.19-49.91,268.7-69.36,50.46-10.84,108.05-20.32,149.65,10.04,28.11,20.52,41.84,54.62,61.26,83.4,50.72,75.19,139.93,113.55,224.21,148.01,142.17,58.14,266.02,141.4,438.42,139.17v331.88H-4.56Z"></path><path class="cls-3" d="m-.91,997.17c206.69-60.16,397.16-164.84,598.6-240.55,144.2-54.2,293.6-93.38,442.67-132.47,87.72-23,177.41-46.2,267.89-39.64,113.8,8.25,218.06,62.53,323.5,105.81,105.45,43.28,223.93,76.44,332.37,41.19v669.67H-.91v-404.02Z"></path><path class="cls-6" d="m-.91,879.2v498.8h1965.05v-301.97c-141.73-1.82-295.84-23.47-418.53-93.95-38.15-21.92-72.55-49.71-109.93-72.9-94.64-58.71-206.14-86.32-317.35-95.54-111.21-9.22-223.05-.91-334.33,7.4-137.62,10.28-275.24,20.55-412.86,30.83-126.55,9.45-245.15,27.33-372.06,27.33"></path></g></g></svg>